<?xml version="1.0" encoding="utf-8"?>
<!-- Generator: Adobe Illustrator 21.0.2, SVG Export Plug-In . SVG Version: 6.00 Build 0)  -->
<svg version="1.1" id="Livello_1" xmlns="http://www.w3.org/2000/svg" xmlns:xlink="http://www.w3.org/1999/xlink" x="0px" y="0px"
	 viewBox="0 0 1366 768" style="enable-background:new 0 0 1366 768;" xml:space="preserve">
<style type="text/css">
	.st0{fill:#061C1B;}
</style>
<g>
	
		<rect x="561" y="95.6" transform="matrix(0.7071 -0.7071 0.7071 0.7071 118.6176 496.9986)" class="st0" width="196.4" height="19.5"/>
	
		<rect x="376.5" y="280.1" transform="matrix(0.7071 -0.7071 0.7071 0.7071 -65.8672 420.5911)" class="st0" width="196.6" height="19.4"/>
	
		<rect x="722.8" y="257.4" transform="matrix(0.7071 -0.7071 0.7071 0.7071 51.6073 658.7939)" class="st0" width="196.4" height="19.5"/>
	
		<rect x="538.3" y="441.9" transform="matrix(0.7071 -0.7071 0.7071 0.7071 -132.8829 582.3752)" class="st0" width="196.6" height="19.5"/>
	
		<rect x="546.1" y="88" transform="matrix(0.7071 -0.7071 0.7071 0.7071 30.724 447.7378)" class="st0" width="19.5" height="197.7"/>
	
		<rect x="730.3" y="273" transform="matrix(0.7071 -0.7071 0.7071 0.7071 -45.5918 631.9635)" class="st0" width="19.5" height="196"/>
	
		<rect x="586.7" y="23.7" transform="matrix(0.7071 -0.7071 0.7071 0.7071 128.5 440.8558)" class="st0" width="19.5" height="83.3"/>
	<polygon class="st0" points="675.6,130.7 661.8,144.5 715.1,197.8 566.1,346.8 512.8,293.5 499.1,307.2 552.3,360.5 479.4,433.4 
		493.2,447.2 566.1,374.3 618.2,426.4 631.9,412.6 579.8,360.5 728.9,211.5 781,263.6 794.7,249.9 742.6,197.8 816.6,123.8 
		802.8,110 728.8,184 	"/>
	
		<rect x="851.9" y="289.8" transform="matrix(0.7071 -0.7071 0.7071 0.7071 18.6451 706.0667)" class="st0" width="19.5" height="81.4"/>
	
		<rect x="423.9" y="186.5" transform="matrix(0.7071 -0.7071 0.7071 0.7071 -34.2698 373.429)" class="st0" width="19.5" height="83.3"/>
	
		<rect x="689.1" y="452.6" transform="matrix(0.7071 -0.7071 0.7071 0.7071 -144.1182 638.6717)" class="st0" width="19.5" height="81.4"/>
	<path class="st0" d="M416,663.7c-6.7,0-13.3,3-16,8v-6.9h-13.4V741h13.4v-31.7c2.7,5.2,9.3,7.9,16,7.9c13.4,0,25-10.4,25-26.8
		C441,674.3,429.4,663.7,416,663.7z M413.8,704.4c-7,0-13.6-4.9-13.6-13.8c0-8.6,6.3-14.1,13.6-14.1c7.4,0,13.5,5.6,13.5,14.1
		C427.3,699,421.1,704.4,413.8,704.4z"/>
	<path class="st0" d="M492.4,671.2c-3.7-5.7-11.3-7.5-15.9-7.5c-13.5,0-26.1,10.2-26.1,26.7c0,16.4,12.6,26.7,26.1,26.7
		c5,0,12.6-2.3,15.9-7.6v6.6h13.4v-51.3h-13.4V671.2z M478.3,704.2c-7.4,0-14.2-5.6-14.2-13.8c0-8.3,6.8-13.8,14.2-13.8
		c7,0,14.1,4.9,14.1,13.8C492.4,699.2,485.6,704.2,478.3,704.2z"/>
	<path class="st0" d="M545,663.7c-14.6,0-26.7,10.4-26.7,26.6c0,16.1,12.1,26.8,26.7,26.8c14.5,0,26.7-10.6,26.7-26.8
		C571.7,674.1,559.5,663.7,545,663.7z M545,704c-7.4,0-13.4-5.4-13.4-13.7c0-8.1,6-13.4,13.4-13.4c7.4,0,13.4,5.3,13.4,13.4
		C558.4,698.6,552.3,704,545,704z"/>
	<rect x="584.2" y="636.9" class="st0" width="13.4" height="79.2"/>
	<path class="st0" d="M652.1,671.2c-3.7-5.7-11.3-7.5-15.9-7.5c-13.5,0-26.1,10.2-26.1,26.7c0,16.4,12.6,26.7,26.1,26.7
		c5,0,12.6-2.3,15.9-7.6v6.6h13.4v-51.3h-13.4V671.2z M638.1,704.2c-7.4,0-14.2-5.6-14.2-13.8c0-8.3,6.8-13.8,14.2-13.8
		c7,0,14.1,4.9,14.1,13.8C652.1,699.2,645.3,704.2,638.1,704.2z"/>
	<polygon class="st0" points="707.6,677.3 732.4,677.3 705.9,705.9 705.9,716.1 751.8,716.1 751.8,703.6 724.9,703.6 751.8,675.1 
		751.8,664.8 707.6,664.8 	"/>
	<path class="st0" d="M803.6,671.2c-3.7-5.7-11.3-7.5-15.9-7.5c-13.5,0-26.1,10.2-26.1,26.7c0,16.4,12.6,26.7,26.1,26.7
		c5,0,12.6-2.3,15.9-7.6v6.6H817v-51.3h-13.4V671.2z M789.6,704.2c-7.4,0-14.2-5.6-14.2-13.8c0-8.3,6.8-13.8,14.2-13.8
		c7,0,14.1,4.9,14.1,13.8C803.6,699.2,796.8,704.2,789.6,704.2z"/>
	<path class="st0" d="M861.4,663.7c-5.9,0-12.4,3.2-15.3,8.7v-7.6h-13.4v51.3h13.4v-27.3c0-8.9,5.2-12,11.2-12c5.8,0,9.8,4,9.8,11.4
		v27.9c2.1,0,11.2,0,13.4,0v-30.3C880.5,671.3,873.3,663.7,861.4,663.7z"/>
	<path class="st0" d="M902.2,653.1c4.6,0,8.4-3.5,8.4-8.1c0-4.5-3.8-8-8.4-8c-4.7,0-8.7,3.5-8.7,8
		C893.6,649.6,897.5,653.1,902.2,653.1z"/>
	<rect x="895.5" y="664.8" class="st0" width="13.3" height="51.3"/>
</g>
</svg>
